<svg width="96" height="96" viewBox="0 0 96 96" fill="none" xmlns="http://www.w3.org/2000/svg">
<mask id="mask0_1049_2429" style="mask-type:alpha" maskUnits="userSpaceOnUse" x="0" y="0" width="96" height="96">
<rect width="96" height="96" fill="#C4C4C4"/>
</mask>
<g mask="url(#mask0_1049_2429)">
<path d="M86.7598 50.553C87.8165 49.3446 87.8165 47.5409 86.7598 46.3325L80.5039 39.1793C79.9259 38.5184 79.6443 37.6493 79.7249 36.775L80.5959 27.3214C80.7435 25.7202 79.682 24.2575 78.114 23.9014L68.8758 21.8029C68.0158 21.6076 67.2743 21.0666 66.8258 20.3072L61.986 12.1129C61.1661 10.7246 59.4426 10.1614 57.9611 10.7976L49.2667 14.5311C48.4592 14.8778 47.5447 14.8778 46.7371 14.5311L38.0392 10.7961C36.5592 10.1605 34.8375 10.7219 34.0165 12.1075L29.1809 20.2692C28.7307 21.0291 27.9868 21.5696 27.1249 21.763L17.8981 23.8333C16.3264 24.1859 15.2605 25.6503 15.4079 27.2544L16.2797 36.7419C16.3598 37.614 16.0797 38.4809 15.5043 39.1411L9.23709 46.333C8.18387 47.5416 8.18547 49.3425 9.24083 50.5492L15.5002 57.7065C16.0781 58.3672 16.3597 59.236 16.2794 60.1101L15.4072 69.6017C15.2601 71.2025 16.3215 72.6648 17.8892 73.0209L27.1306 75.12C27.9891 75.315 28.7296 75.8546 29.1784 76.612L34.0129 84.7719C34.8355 86.1601 36.5617 86.7206 38.0429 86.0802L46.7342 82.3225C47.5434 81.9726 48.461 81.9715 49.2711 82.3194L57.9647 86.0525C59.4447 86.688 61.1664 86.1267 61.9874 84.741L66.8255 76.5751C67.2742 75.8176 68.0148 75.2781 68.8733 75.0831L78.114 72.9841C79.682 72.628 80.7435 71.1653 80.5959 69.5641L79.7249 60.1105C79.6443 59.2362 79.9259 58.3671 80.5039 57.7061L86.7598 50.553Z" fill="white"/>
<path fill-rule="evenodd" clip-rule="evenodd" d="M84.0226 36.7107L89.9766 43.5188C92.4425 46.3383 92.4425 50.5471 89.9766 53.3666L84.0226 60.1747L84.8516 69.1719C85.1958 72.9079 82.719 76.3209 79.0603 77.152L70.2679 79.1491L65.6641 86.9196C63.7485 90.1528 59.7311 91.4626 56.2779 89.9798L48.0073 86.4283L39.7386 90.0033C36.2826 91.4975 32.2547 90.1898 30.3355 86.9504L25.7352 79.186L16.9421 77.1887C13.2842 76.3578 10.8074 72.9459 11.1507 69.2105L11.981 60.1752L6.0232 53.3628C3.56069 50.5471 3.55697 46.3451 6.01448 43.525L11.9814 36.6778L11.1514 27.6454C10.8074 23.9026 13.2946 20.4858 16.962 19.6629L25.7386 17.6936L30.339 9.92892C32.2547 6.69568 36.272 5.38591 39.7252 6.86876L48.0016 10.4227L56.2743 6.8703C59.7311 5.38591 63.7526 6.70006 65.6657 9.93929L70.2713 17.7371L79.0603 19.7335C82.719 20.5645 85.1958 23.9775 84.8516 27.7135L84.0226 36.7107ZM86.7594 46.3325C87.8162 47.5408 87.8162 49.3446 86.7594 50.553L80.5036 57.7061C79.9256 58.367 79.644 59.2361 79.7245 60.1105L80.5956 69.5641C80.7431 71.1652 79.6816 72.6279 78.1136 72.9841L68.8729 75.0831C68.0144 75.2781 67.2739 75.8176 66.8251 76.575L61.987 84.741C61.166 86.1267 59.4443 86.688 57.9643 86.0525L49.2707 82.3193C48.4606 81.9715 47.543 81.9726 46.7338 82.3225L38.0425 86.0802C36.5614 86.7206 34.8351 86.1601 34.0126 84.7718L29.178 76.6119C28.7293 75.8545 27.9887 75.315 27.1302 75.12L17.8888 73.0209C16.3211 72.6648 15.2597 71.2025 15.4068 69.6016L16.279 60.11C16.3593 59.236 16.0777 58.3672 15.4999 57.7065L9.24045 50.5492C8.18509 49.3424 8.1835 47.5416 9.23671 46.333L15.5039 39.1411C16.0793 38.4809 16.3594 37.6139 16.2793 36.7418L15.4075 27.2543C15.2601 25.6503 16.326 24.1859 17.8978 23.8333L27.1245 21.763C27.9864 21.5696 28.7303 21.0291 29.1806 20.2692L34.0161 12.1075C34.8371 10.7218 36.5588 10.1605 38.0388 10.796L46.7368 14.531C47.5443 14.8778 48.4588 14.8778 49.2664 14.531L57.9608 10.7976C59.4422 10.1614 61.1657 10.7246 61.9856 12.1128L66.8254 20.3072C67.2739 21.0665 68.0154 21.6076 68.8755 21.8029L78.1136 23.9013C79.6816 24.2575 80.7431 25.7202 80.5956 27.3213L79.7245 36.775C79.644 37.6493 79.9256 38.5184 80.5036 39.1793L86.7594 46.3325Z" fill="white"/>
<path d="M86.8779 50.4176C87.8669 49.2867 87.8669 47.5986 86.8779 46.4677L80.4457 39.1129C79.9048 38.4943 79.6412 37.681 79.7166 36.8627L80.6123 27.1419C80.7504 25.6434 79.7569 24.2745 78.2895 23.9412L68.7893 21.7832C67.9844 21.6004 67.2904 21.0941 66.8707 20.3834L61.8939 11.9571C61.1265 10.6579 59.5136 10.1308 58.1271 10.7262L49.1855 14.5658C48.4297 14.8903 47.5738 14.8903 46.8181 14.5658L37.8731 10.7247C36.488 10.13 34.8767 10.6553 34.1084 11.9521L29.1355 20.3455C28.7142 21.0567 28.018 21.5625 27.2113 21.7435L17.7218 23.8727C16.2508 24.2028 15.2532 25.5732 15.3912 27.0745L16.2876 36.8293C16.3626 37.6455 16.1004 38.4569 15.5619 39.0748L9.11904 46.4682C8.13335 47.5993 8.13485 49.2847 9.12254 50.4141L15.5581 57.7728C16.0989 58.3911 16.3624 59.2042 16.2873 60.0222L15.3905 69.7809C15.2529 71.2792 16.2463 72.6476 17.7134 72.9809L27.2167 75.1395C28.0201 75.322 28.7132 75.827 29.1331 76.5358L34.105 84.9275C34.8748 86.2268 36.4904 86.7513 37.8766 86.152L46.8153 82.2873C47.5726 81.9599 48.4314 81.9588 49.1895 82.2843L58.1304 86.1237C59.5155 86.7184 61.1268 86.1931 61.8952 84.8963L66.8704 76.4989C67.2904 75.79 67.9834 75.2851 68.7869 75.1026L78.2895 72.9441C79.7569 72.6108 80.7504 71.2419 80.6123 69.7434L79.7166 60.0226C79.6412 59.2044 79.9048 58.391 80.4457 57.7724L86.8779 50.4176ZM38.3308 63.2444L29.5457 54.3855C28.1061 52.9459 28.1061 50.6205 29.5457 49.1809L29.8041 48.9225C31.2437 47.4829 33.606 47.4829 35.0456 48.9225L40.9885 54.9023L59.9982 35.8556C61.4378 34.4161 63.8002 34.4161 65.2397 35.8556L65.4981 36.114C66.9377 37.5536 66.9377 39.879 65.4981 41.3186L43.6461 63.2444C42.1327 64.684 39.8073 64.684 38.3308 63.2444Z" fill="url(#paint0_linear_1049_2429)"/>
</g>
<defs>
<linearGradient id="paint0_linear_1049_2429" x1="48.0018" y1="9.68494" x2="48.0018" y2="87.2004" gradientUnits="userSpaceOnUse">
<stop stop-color="#9A66EF"/>
<stop offset="1" stop-color="#7D55BE"/>
</linearGradient>
</defs>
</svg>
