<svg width="35" height="24" viewBox="0 0 35 24" fill="none" xmlns="http://www.w3.org/2000/svg">
<path d="M9.73317 20.0001C8.82674 20.0001 8.01851 19.849 7.30847 19.5469C6.59843 19.2447 5.99415 18.8368 5.49561 18.3232C5.01218 17.7944 4.64205 17.1902 4.38523 16.5103C4.12841 15.8305 4 15.0978 4 14.3122C4 13.2698 4.24171 12.3408 4.72514 11.525C5.20857 10.7092 5.87329 10.0671 6.71929 9.5988C7.5804 9.11537 8.56236 8.87366 9.66519 8.87366C10.4205 8.87366 11.0928 8.99451 11.682 9.23623C12.2863 9.46284 12.7999 9.77253 13.2229 10.1653C13.6459 10.5581 13.9707 10.9962 14.1973 11.4796C14.4239 11.9631 14.5372 12.4465 14.5372 12.9299C14.5372 13.7004 14.356 14.2443 13.9934 14.5615C13.6308 14.8636 13.1852 15.0147 12.6564 15.0147H6.10745C6.09234 15.6794 6.26608 16.2535 6.62865 16.7369C7.00633 17.2053 7.47465 17.5678 8.03361 17.8247C8.60769 18.0815 9.18176 18.2099 9.75583 18.2099C10.1788 18.2099 10.5414 18.1872 10.8435 18.1419C11.1457 18.0966 11.4101 18.0362 11.6367 17.9606C11.8633 17.8851 12.0597 17.8095 12.2259 17.734C12.392 17.6585 12.5355 17.5829 12.6564 17.5074C12.7924 17.4319 12.9208 17.379 13.0416 17.3488C13.1776 17.3186 13.306 17.3337 13.4269 17.3941C13.5628 17.4394 13.6686 17.5376 13.7441 17.6887C13.8348 17.8095 13.8952 17.9228 13.9254 18.0286C13.9556 18.1343 13.9707 18.2477 13.9707 18.3685C13.9707 18.58 13.7894 18.8142 13.4269 19.071C13.0643 19.3278 12.5582 19.5469 11.9086 19.7282C11.2741 19.9094 10.549 20.0001 9.73317 20.0001ZM6.10745 13.6777H11.7953C12.0823 13.6777 12.2938 13.64 12.4298 13.5644C12.5809 13.4889 12.6564 13.2849 12.6564 12.9526C12.6564 12.5296 12.528 12.1519 12.2712 11.8196C12.0144 11.4721 11.6593 11.1926 11.2061 10.9811C10.768 10.7696 10.2619 10.6639 9.68785 10.6639C9.02313 10.6639 8.41129 10.7998 7.85233 11.0717C7.30847 11.3286 6.87792 11.6836 6.56066 12.1368C6.24341 12.59 6.09234 13.1037 6.10745 13.6777Z" fill="#9A66EF"/>
<path d="M18.7843 19.8414C18.1347 19.8414 17.6664 19.7432 17.3793 19.5468C17.0923 19.3504 16.911 19.0936 16.8355 18.7763C16.7599 18.4591 16.7222 18.1192 16.7222 17.7566V6.04098C16.7222 5.70862 16.7524 5.38382 16.8128 5.06657C16.8732 4.74932 17.047 4.49249 17.334 4.2961C17.621 4.0846 18.112 3.9864 18.807 4.00151H22.7046C23.7772 4.00151 24.7894 4.20546 25.7411 4.61335C26.6929 5.02124 27.5313 5.58776 28.2565 6.31291C28.9967 7.02294 29.5708 7.85384 29.9787 8.80559C30.4017 9.75734 30.6132 10.7695 30.6132 11.8421C30.6132 12.945 30.4017 13.9798 29.9787 14.9467C29.5708 15.9135 28.9967 16.7671 28.2565 17.5073C27.5313 18.2325 26.6853 18.8065 25.7185 19.2295C24.7667 19.6374 23.7394 19.8414 22.6366 19.8414H18.7843ZM20.8691 15.6945H22.7046C23.3844 15.6945 24.0114 15.5283 24.5854 15.1959C25.1595 14.8485 25.6127 14.3952 25.9451 13.8363C26.2926 13.2622 26.4663 12.6277 26.4663 11.9328C26.4663 11.2378 26.2926 10.6033 25.9451 10.0293C25.6127 9.4552 25.1595 9.00198 24.5854 8.66963C24.0114 8.32216 23.3769 8.14843 22.6819 8.14843H20.8691V15.6945Z" fill="#35B1D8"/>
</svg>
