<svg width="20" height="20" viewBox="0 0 20 20" fill="none" xmlns="http://www.w3.org/2000/svg">
<path d="M9.99902 18.0001C14.4173 18.0001 17.999 14.4184 17.999 10.0001C17.999 5.58184 14.4173 2.00012 9.99902 2.00012C5.58075 2.00012 1.99902 5.58184 1.99902 10.0001C1.99902 14.4184 5.58075 18.0001 9.99902 18.0001Z" fill="white"/>
<path d="M14.5819 6.66671C14.9652 6.66671 15.3402 6.62504 15.6986 6.56671C14.5319 4.63337 12.4152 3.33337 9.9985 3.33337C9.61517 3.33337 9.24017 3.37504 8.88184 3.43337C10.0486 5.36671 12.1652 6.66671 14.5819 6.66671Z" fill="white"/>
<path d="M6.73066 4.19165C5.30566 4.99998 4.20566 6.31665 3.68066 7.89165C5.10566 7.08332 6.20566 5.76665 6.73066 4.19165Z" fill="white"/>
<path d="M9.99984 1.66663C5.39984 1.66663 1.6665 5.39996 1.6665 9.99996C1.6665 14.6 5.39984 18.3333 9.99984 18.3333C14.5998 18.3333 18.3332 14.6 18.3332 9.99996C18.3332 5.39996 14.5998 1.66663 9.99984 1.66663ZM9.99984 3.33329C12.4165 3.33329 14.5332 4.63329 15.6998 6.56663C15.3415 6.62496 14.9665 6.66663 14.5832 6.66663C12.1665 6.66663 10.0498 5.36663 8.88317 3.43329C9.24151 3.37496 9.6165 3.33329 9.99984 3.33329ZM6.73317 4.19163C6.20817 5.76663 5.10817 7.08329 3.68317 7.89163C4.20817 6.31663 5.30817 4.99996 6.73317 4.19163ZM9.99984 16.6666C6.32484 16.6666 3.33317 13.675 3.33317 9.99996C3.33317 9.95829 3.3415 9.91663 3.3415 9.87496C5.50817 9.05829 7.2415 7.38329 8.12484 5.24996C9.64984 7.13329 11.9748 8.33329 14.5832 8.33329C15.2082 8.33329 15.8082 8.25829 16.3915 8.13329C16.5665 8.72496 16.6665 9.34996 16.6665 9.99996C16.6665 13.675 13.6748 16.6666 9.99984 16.6666Z" fill="#9A66EF"/>
<path d="M7.49772 11.875C8.07301 11.875 8.53939 11.4087 8.53939 10.8334C8.53939 10.2582 8.07301 9.79175 7.49772 9.79175C6.92242 9.79175 6.45605 10.2582 6.45605 10.8334C6.45605 11.4087 6.92242 11.875 7.49772 11.875Z" fill="#9A66EF"/>
<path d="M12.4977 11.875C13.073 11.875 13.5394 11.4087 13.5394 10.8334C13.5394 10.2582 13.073 9.79175 12.4977 9.79175C11.9224 9.79175 11.4561 10.2582 11.4561 10.8334C11.4561 11.4087 11.9224 11.875 12.4977 11.875Z" fill="#9A66EF"/>
</svg>
