<svg width="16" height="16" viewBox="0 0 16 16" fill="none" xmlns="http://www.w3.org/2000/svg">
<circle cx="8" cy="8" r="8" fill="#9A66EF"/>
<path d="M5.26808 10.9306C4.94111 10.9306 4.64955 10.8761 4.39342 10.7672C4.13729 10.6582 3.9193 10.511 3.73946 10.3257C3.56508 10.135 3.43156 9.91701 3.33892 9.67178C3.24627 9.42654 3.19995 9.16224 3.19995 8.87886C3.19995 8.50283 3.28715 8.16768 3.46153 7.8734C3.63592 7.57912 3.8757 7.34751 4.18088 7.17857C4.49151 7.00419 4.84574 6.91699 5.24356 6.91699C5.51604 6.91699 5.75855 6.96059 5.97109 7.04778C6.18907 7.12953 6.37436 7.24124 6.52695 7.38294C6.67954 7.52463 6.7967 7.68266 6.87845 7.85705C6.96019 8.03144 7.00107 8.20583 7.00107 8.38022C7.00107 8.65815 6.93567 8.85433 6.80488 8.96878C6.67409 9.07777 6.51332 9.13226 6.32259 9.13226H3.96017C3.95472 9.37205 4.0174 9.57913 4.14819 9.75352C4.28443 9.92246 4.45337 10.0533 4.655 10.1459C4.86209 10.2385 5.06917 10.2849 5.27626 10.2849C5.42885 10.2849 5.55964 10.2767 5.66863 10.2603C5.77762 10.244 5.87299 10.2222 5.95474 10.1949C6.03648 10.1677 6.10733 10.1404 6.16727 10.1132C6.22722 10.0859 6.27899 10.0587 6.32259 10.0315C6.37163 10.0042 6.41796 9.98513 6.46155 9.97423C6.5106 9.96333 6.55692 9.96878 6.60052 9.99058C6.64956 10.0069 6.68771 10.0424 6.71496 10.0968C6.74766 10.1404 6.76946 10.1813 6.78036 10.2195C6.79125 10.2576 6.7967 10.2985 6.7967 10.3421C6.7967 10.4184 6.73131 10.5028 6.60052 10.5955C6.46973 10.6881 6.28716 10.7672 6.05283 10.8325C5.82395 10.8979 5.56236 10.9306 5.26808 10.9306ZM3.96017 8.64997H6.01196C6.1155 8.64997 6.1918 8.63635 6.24084 8.6091C6.29534 8.58185 6.32259 8.50828 6.32259 8.38839C6.32259 8.2358 6.27627 8.09956 6.18362 7.97967C6.09098 7.85433 5.96291 7.75351 5.79942 7.67721C5.64138 7.60092 5.45882 7.56277 5.25174 7.56277C5.01195 7.56277 4.79124 7.61182 4.58961 7.70991C4.39342 7.80256 4.2381 7.93062 4.12366 8.09411C4.00922 8.2576 3.95472 8.44289 3.96017 8.64997Z" fill="white"/>
<path d="M8.53306 10.8737C8.29872 10.8737 8.12979 10.8382 8.02624 10.7674C7.9227 10.6965 7.8573 10.6039 7.83006 10.4895C7.80281 10.375 7.78918 10.2524 7.78918 10.1216V5.89542C7.78918 5.77553 7.80008 5.65837 7.82188 5.54392C7.84368 5.42948 7.90635 5.33684 8.00989 5.26599C8.11344 5.1897 8.29055 5.15428 8.54123 5.15972H9.94724C10.3342 5.15972 10.6993 5.23329 11.0426 5.38043C11.3859 5.52757 11.6884 5.73194 11.95 5.99352C12.217 6.24965 12.4241 6.54938 12.5712 6.89271C12.7238 7.23603 12.8001 7.60116 12.8001 7.98808C12.8001 8.3859 12.7238 8.7592 12.5712 9.10798C12.4241 9.45676 12.217 9.76466 11.95 10.0317C11.6884 10.2933 11.3832 10.5004 11.0344 10.6529C10.6911 10.8001 10.3205 10.8737 9.92271 10.8737H8.53306ZM9.28511 9.37774H9.94724C10.1925 9.37774 10.4186 9.31779 10.6257 9.1979C10.8328 9.07256 10.9963 8.90907 11.1162 8.70743C11.2415 8.50035 11.3042 8.27146 11.3042 8.02078C11.3042 7.7701 11.2415 7.54121 11.1162 7.33413C10.9963 7.12704 10.8328 6.96355 10.6257 6.84366C10.4186 6.71832 10.1897 6.65565 9.93906 6.65565H9.28511V9.37774Z" fill="white"/>
</svg>
