<svg width="24" height="24" viewBox="0 0 24 24" fill="none" xmlns="http://www.w3.org/2000/svg">
<path d="M11.9989 21.6002C17.3009 21.6002 21.5989 17.3022 21.5989 12.0002C21.5989 6.69831 17.3009 2.40024 11.9989 2.40024C6.69699 2.40024 2.39893 6.69831 2.39893 12.0002C2.39893 17.3022 6.69699 21.6002 11.9989 21.6002Z" fill="white"/>
<path d="M17.4983 8.00015C17.9583 8.00015 18.4083 7.95015 18.8383 7.88015C17.4383 5.56015 14.8983 4.00015 11.9982 4.00015C11.5382 4.00015 11.0882 4.05015 10.6582 4.12015C12.0583 6.44015 14.5983 8.00015 17.4983 8.00015Z" fill="white"/>
<path d="M8.07699 5.02997C6.36699 5.99997 5.04699 7.57997 4.41699 9.46997C6.12699 8.49997 7.44699 6.91997 8.07699 5.02997Z" fill="white"/>
<path d="M12 2C6.48 2 2 6.48 2 12C2 17.52 6.48 22 12 22C17.52 22 22 17.52 22 12C22 6.48 17.52 2 12 2ZM12 4C14.9 4 17.44 5.56 18.84 7.88C18.41 7.95 17.96 8 17.5 8C14.6 8 12.06 6.44 10.66 4.12C11.09 4.05 11.54 4 12 4ZM8.08 5.03C7.45 6.92 6.13 8.5 4.42 9.47C5.05 7.58 6.37 6 8.08 5.03ZM12 20C7.59 20 4 16.41 4 12C4 11.95 4.01 11.9 4.01 11.85C6.61 10.87 8.69 8.86 9.75 6.3C11.58 8.56 14.37 10 17.5 10C18.25 10 18.97 9.91 19.67 9.76C19.88 10.47 20 11.22 20 12C20 16.41 16.41 20 12 20Z" fill="#82AABE"/>
<path d="M8.99756 14.2501C9.68791 14.2501 10.2476 13.6905 10.2476 13.0001C10.2476 12.3099 9.68791 11.7502 8.99756 11.7502C8.3072 11.7502 7.74756 12.3099 7.74756 13.0001C7.74756 13.6905 8.3072 14.2501 8.99756 14.2501Z" fill="#82AABE"/>
<path d="M14.9971 14.2501C15.6874 14.2501 16.2471 13.6905 16.2471 13.0001C16.2471 12.3099 15.6874 11.7502 14.9971 11.7502C14.3067 11.7502 13.7471 12.3099 13.7471 13.0001C13.7471 13.6905 14.3067 14.2501 14.9971 14.2501Z" fill="#82AABE"/>
</svg>
